<?xml version="1.0" encoding="UTF-8"?>
<svg width="87px" height="116px" viewBox="0 0 87 116" version="1.1" xmlns="http://www.w3.org/2000/svg" xmlns:xlink="http://www.w3.org/1999/xlink">
    <!-- Generator: Sketch 49 (51002) - http://www.bohemiancoding.com/sketch -->
    <title>dispatch-simple</title>
    <desc>Created with Sketch.</desc>
    <defs></defs>
    <g id="Page-1" stroke="none" stroke-width="1" fill="none" fill-rule="evenodd">
        <path d="M64.234,101.863 C64.219,101.753 64.223,101.642 64.197,101.533 L61.567,90.11 C61.296,88.933 60.503,87.944 59.413,87.423 L48.962,82.434 C48.409,82.169 47.455,81.954 46.842,81.954 C46.314,81.98 45.805,82.11 45.328,82.337 L41.907,83.972 L46.789,93.868 C46.875,93.864 46.96,93.854 47.047,93.854 C50.244,93.854 52.841,96.396 52.943,99.568 C52.946,99.633 52.953,99.696 52.953,99.762 C52.953,103.024 50.309,105.668 47.047,105.668 C44.025,105.668 41.537,103.398 41.187,100.471 C41.158,100.238 41.14,100.002 41.14,99.762 C41.14,97.903 42,96.248 43.342,95.165 L38.599,85.552 L34.681,87.424 C33.587,87.947 32.792,88.939 32.52,90.121 L29.895,101.538 C29.668,102.524 29.846,103.567 30.359,104.429 C30.387,104.475 30.403,104.527 30.433,104.572 C30.502,104.679 30.577,104.783 30.664,104.893 L38.039,114.062 C38.796,115.003 39.924,115.541 41.131,115.541 C41.132,115.541 41.134,115.541 41.135,115.541 L52.958,115.539 C52.96,115.539 52.961,115.539 52.962,115.539 C54.171,115.539 55.298,115.001 56.057,114.06 L63.428,104.891 C64.114,104.036 64.388,102.939 64.234,101.863" id="Fill-4" fill="#1F89BE"></path>
        <path d="M32.024,73.99 C28.762,73.99 26.117,71.345 26.117,68.082 C26.117,64.82 28.762,62.176 32.024,62.176 C33.196,62.176 34.286,62.521 35.205,63.11 L43.039,56.698 L41.061,54.238 C40.676,53.76 39.91,53.152 39.357,52.886 C38.87,52.682 38.355,52.578 37.827,52.577 L26.026,52.549 C24.815,52.546 23.668,53.097 22.911,54.043 L15.6,63.197 C14.934,64.03 14.631,65.115 14.771,66.164 C14.786,66.29 14.809,66.417 14.84,66.554 L17.514,78.013 C17.789,79.188 18.572,80.163 19.66,80.686 C19.661,80.687 19.663,80.687 19.664,80.687 L30.321,85.807 C30.322,85.808 30.324,85.808 30.325,85.809 C31.414,86.332 32.664,86.335 33.755,85.815 L37.78,83.893 L32.861,73.923 C32.588,73.962 32.31,73.99 32.024,73.99" id="Fill-5" fill="#67AB44"></path>
        <path d="M48.318,63.262 L45.337,59.555 L37.527,65.947 C37.785,66.61 37.932,67.329 37.932,68.082 C37.932,69.738 37.249,71.232 36.152,72.305 L41.089,82.312 L44.37,80.744 C45.461,80.223 46.253,79.23 46.519,78.051 L49.096,66.617 C49.361,65.438 49.075,64.203 48.318,63.262" id="Fill-6" fill="#67AB44"></path>
        <path d="M76.067,49.238 L73.438,37.816 C73.166,36.639 72.373,35.649 71.283,35.129 L60.832,30.139 C60.279,29.875 59.325,29.659 58.712,29.659 C58.184,29.686 57.675,29.815 57.198,30.043 L53.281,31.914 L57.72,40.441 C58.034,40.389 58.355,40.355 58.684,40.355 C61.946,40.355 64.591,43 64.591,46.263 C64.591,49.525 61.946,52.169 58.684,52.169 C57.512,52.169 56.422,51.824 55.503,51.235 L47.022,58.177 L49.908,61.768 C50.666,62.708 51.793,63.247 53.001,63.247 C53.002,63.247 53.004,63.247 53.006,63.247 L64.828,63.245 C64.83,63.245 64.831,63.245 64.832,63.245 C66.041,63.245 67.168,62.706 67.927,61.765 L75.297,52.596 C76.055,51.654 76.339,50.416 76.067,49.238" id="Fill-7" fill="#253863"></path>
        <path d="M52.776,46.263 C52.776,44.653 53.422,43.195 54.467,42.13 L49.973,33.495 L46.551,35.13 C45.457,35.652 44.662,36.645 44.391,37.826 L41.766,49.244 C41.525,50.283 41.724,51.392 42.303,52.277 C42.372,52.384 42.447,52.488 42.534,52.598 L44.723,55.32 L53.181,48.398 C52.924,47.735 52.776,47.017 52.776,46.263" id="Fill-8" fill="#253863"></path>
        <path d="M59.577,11.171 L52.319,2.147 C51.936,1.669 51.169,1.061 50.616,0.795 C50.129,0.591 49.613,0.487 49.086,0.486 L37.285,0.458 C36.073,0.456 34.927,1.006 34.17,1.953 L26.859,11.106 C26.192,11.939 25.891,13.024 26.029,14.074 C26.045,14.2 26.067,14.326 26.099,14.463 L28.773,25.922 C29.049,27.098 29.831,28.072 30.92,28.595 C30.921,28.596 30.922,28.596 30.924,28.597 L41.581,33.716 C41.582,33.717 41.583,33.717 41.584,33.718 C42.674,34.241 43.923,34.244 45.015,33.725 L49.08,31.782 L44.281,22.561 C43.939,22.623 43.588,22.66 43.228,22.66 C39.965,22.66 37.32,20.016 37.32,16.753 C37.32,16.252 37.39,15.769 37.507,15.304 C38.154,12.744 40.466,10.847 43.228,10.847 C45.936,10.847 48.212,12.671 48.91,15.156 C49.053,15.664 49.135,16.199 49.135,16.753 C49.135,18.33 48.513,19.758 47.507,20.818 L52.391,30.201 L55.629,28.653 C56.72,28.132 57.512,27.14 57.777,25.96 L60.355,14.526 C60.621,13.348 60.334,12.112 59.577,11.171" id="Fill-9" fill="#A3C93C"></path>
    </g>
</svg>